<svg version="1.2" baseProfile="tiny-ps" xmlns="http://www.w3.org/2000/svg" viewBox="0 0 144 41" width="144" height="41">
	<title>logo-light-svg</title>
	<defs>
		<linearGradient id="grd1" gradientUnits="userSpaceOnUse"  x1="0.131" y1="23.633" x2="36.684" y2="23.643">
			<stop offset="0.006" stop-color="#00deff"  />
			<stop offset="1" stop-color="#7141b1"  />
		</linearGradient>
		<linearGradient id="grd2" gradientUnits="userSpaceOnUse"  x1="0.001" y1="23.586" x2="36.815" y2="23.596">
			<stop offset="0.006" stop-color="#82e7d7"  />
			<stop offset="0.365" stop-color="#72c9be"  />
			<stop offset="0.524" stop-color="#64b0b3"  />
			<stop offset="1" stop-color="#3c6a95"  />
		</linearGradient>
		<linearGradient id="grd3" gradientUnits="userSpaceOnUse"  x1="8.51" y1="6.508" x2="24.994" y2="6.512">
			<stop offset="0.006" stop-color="#00deff"  />
			<stop offset="1" stop-color="#7141b1"  />
		</linearGradient>
		<linearGradient id="grd4" gradientUnits="userSpaceOnUse"  x1="-0.07" y1="6.554" x2="36.991" y2="6.565">
			<stop offset="0.006" stop-color="#82e7d7"  />
			<stop offset="0.365" stop-color="#72c9be"  />
			<stop offset="0.524" stop-color="#64b0b3"  />
			<stop offset="1" stop-color="#3c6a95"  />
		</linearGradient>
		<linearGradient id="grd5" gradientUnits="userSpaceOnUse"  x1="8.507" y1="14.211" x2="36.702" y2="14.219">
			<stop offset="0.006" stop-color="#00deff"  />
			<stop offset="1" stop-color="#7141b1"  />
		</linearGradient>
		<linearGradient id="grd6" gradientUnits="userSpaceOnUse"  x1="-0.026" y1="14.209" x2="36.832" y2="14.219">
			<stop offset="0.006" stop-color="#82e7d7"  />
			<stop offset="0.365" stop-color="#72c9be"  />
			<stop offset="0.524" stop-color="#64b0b3"  />
			<stop offset="1" stop-color="#3c6a95"  />
		</linearGradient>
	</defs>
	<style>
		tspan { white-space:pre }
		.shp0 { fill: url(#grd1);stroke: url(#grd2);stroke-width: 0.26 } 
		.shp1 { fill: url(#grd3);stroke: url(#grd4);stroke-width: 0.26 } 
		.shp2 { fill: url(#grd5);stroke: url(#grd6);stroke-width: 0.26 } 
		.txt3 { font-size: 24px;fill: #ffffff;font-weight: 400;font-family: "Chonburi-Regular", "Chonburi" } 
	</style>
	<g id="Layer">
		<g id="Layer">
			<g id="Layer">
				<path id="Layer" class="shp0" d="M18.5 26.8L8.5 21L8.5 26.1L18.4 32L31.5 24.8L31.5 27.7L18.4 35L5.9 27.6L5.9 6.6L2.7 8.4C1.2 9.3 0.2 10.9 0.2 12.7L0.1 28C0.1 29.8 1 31.4 2.6 32.3L15.8 40C17.3 40.9 19.2 40.9 20.8 40L34.1 32.4C35.6 31.5 36.6 29.9 36.6 28.1L36.7 16L18.5 26.8Z" />
				<path id="Layer" class="shp1" d="M25 3.1L21 0.8C19.5 -0.1 17.6 -0.1 16 0.8L8.5 5.1L8.5 12.9L25 3.1Z" />
				<path id="Layer" class="shp2" d="M8.5 18L18.5 23.8L36.7 13L36.7 12.8C36.7 11 35.8 9.4 34.3 8.5L18.4 18L15.7 16.5L31.7 7.1L27.5 4.6L8.5 15.8L8.5 18Z" />
			</g>
			<text id="J&amp;A " style="transform: matrix(1.423,0,0,1.421,38.577,32.579)" >
				<tspan x="0" y="0" class="txt3">J&amp;A</tspan>
			</text>
			<g id="logo">
			</g>
		</g>
	</g>
</svg>