<svg version="1.2" baseProfile="tiny-ps" xmlns="http://www.w3.org/2000/svg" viewBox="0 0 144 41" width="144" height="41">
	<title>logo-svg</title>
	<defs>
		<linearGradient id="grd1" gradientUnits="userSpaceOnUse"  x1="0.131" y1="23.633" x2="36.684" y2="23.643">
			<stop offset="0.006" stop-color="#00deff"  />
			<stop offset="1" stop-color="#7141b1"  />
		</linearGradient>
		<linearGradient id="grd2" gradientUnits="userSpaceOnUse"  x1="0.001" y1="23.586" x2="36.815" y2="23.596">
			<stop offset="0.006" stop-color="#82e7d7"  />
			<stop offset="0.365" stop-color="#72c9be"  />
			<stop offset="0.524" stop-color="#64b0b3"  />
			<stop offset="1" stop-color="#3c6a95"  />
		</linearGradient>
		<linearGradient id="grd3" gradientUnits="userSpaceOnUse"  x1="8.51" y1="6.508" x2="24.994" y2="6.512">
			<stop offset="0.006" stop-color="#00deff"  />
			<stop offset="1" stop-color="#7141b1"  />
		</linearGradient>
		<linearGradient id="grd4" gradientUnits="userSpaceOnUse"  x1="-0.07" y1="6.554" x2="36.991" y2="6.565">
			<stop offset="0.006" stop-color="#82e7d7"  />
			<stop offset="0.365" stop-color="#72c9be"  />
			<stop offset="0.524" stop-color="#64b0b3"  />
			<stop offset="1" stop-color="#3c6a95"  />
		</linearGradient>
		<linearGradient id="grd5" gradientUnits="userSpaceOnUse"  x1="8.507" y1="14.211" x2="36.702" y2="14.219">
			<stop offset="0.006" stop-color="#00deff"  />
			<stop offset="1" stop-color="#7141b1"  />
		</linearGradient>
		<linearGradient id="grd6" gradientUnits="userSpaceOnUse"  x1="-0.026" y1="14.209" x2="36.832" y2="14.219">
			<stop offset="0.006" stop-color="#82e7d7"  />
			<stop offset="0.365" stop-color="#72c9be"  />
			<stop offset="0.524" stop-color="#64b0b3"  />
			<stop offset="1" stop-color="#3c6a95"  />
		</linearGradient>
	</defs>
	<style>
		tspan { white-space:pre }
		.shp0 { fill: url(#grd1);stroke: url(#grd2);stroke-width: 0.26 } 
		.shp1 { fill: url(#grd3);stroke: url(#grd4);stroke-width: 0.26 } 
		.shp2 { fill: url(#grd5);stroke: url(#grd6);stroke-width: 0.26 } 
		.shp3 { fill: #1b1d21 } 
		.txt4 { font-size: 39px;fill: #1d1c1c;font-weight: 400;font-family: "Chivo-Regular", "Chivo" } 
	</style>
	<g id="Layer">
		<g id="Layer">
			<g id="Layer">
				<path id="Layer" class="shp0" d="M18.5 26.8L8.5 21L8.5 26.1L18.4 32L31.5 24.8L31.5 27.7L18.4 35L5.9 27.6L5.9 6.6L2.7 8.4C1.2 9.3 0.2 10.9 0.2 12.7L0.1 28C0.1 29.8 1 31.4 2.6 32.3L15.8 40C17.3 40.9 19.2 40.9 20.8 40L34.1 32.4C35.6 31.5 36.6 29.9 36.6 28.1L36.7 16L18.5 26.8Z" />
				<path id="Layer" class="shp1" d="M25 3.1L21 0.8C19.5 -0.1 17.6 -0.1 16 0.8L8.5 5.1L8.5 12.9L25 3.1Z" />
				<path id="Layer" class="shp2" d="M8.5 18L18.5 23.8L36.7 13L36.7 12.8C36.7 11 35.8 9.4 34.3 8.5L18.4 18L15.7 16.5L31.7 7.1L27.5 4.6L8.5 15.8L8.5 18Z" />
			</g>
			<g id="Layer">
				<path id="Layer" fill-rule="evenodd" class="shp3" d="M98.8 23.8L98.6 26.4C98.1 26.5 97.7 26.5 97.2 26.5C95.4 26.5 94.1 26.1 93.3 25.3C92.5 24.5 92.1 23.3 92.1 21.7L92.1 17.2L89.9 17.2L89.9 14.5L92 14.5L92 11L95.6 11L95.6 14.5L98.6 14.5L98.6 17.2L95.6 17.2L95.6 21.7C95.6 23.1 96.3 23.8 97.6 23.8C98 23.9 98.4 23.9 98.8 23.8ZM103.3 21.2C103.4 22.1 103.7 22.8 104.2 23.3C104.7 23.7 105.4 23.9 106.3 23.9C106.9 23.9 107.5 23.8 108.1 23.6C108.7 23.4 109.2 23.1 109.7 22.7L110.7 25.1C110.1 25.5 109.4 25.9 108.6 26.2C107.8 26.5 106.9 26.6 106.1 26.6C104.1 26.6 102.6 26.1 101.4 25C100.3 23.9 99.7 22.4 99.7 20.5C99.7 19.3 99.9 18.2 100.4 17.3C100.9 16.4 101.6 15.6 102.5 15.1C103.4 14.6 104.4 14.3 105.5 14.3C107.1 14.3 108.5 14.8 109.4 15.9C110.3 17 110.9 18.4 110.9 20.3L110.9 21.2L103.3 21.2ZM104.1 17.4C103.7 17.8 103.4 18.5 103.3 19.3L107.9 19.3C107.9 18.5 107.6 17.8 107.3 17.4C106.9 17 106.4 16.8 105.7 16.8C105 16.8 104.5 17 104.1 17.4ZM114.3 24.9C113.2 23.8 112.6 22.3 112.6 20.5C112.6 19.3 112.9 18.2 113.4 17.2C113.9 16.3 114.7 15.5 115.6 15C116.6 14.5 117.7 14.2 118.9 14.2C119.8 14.2 120.6 14.3 121.4 14.6C122.2 14.9 122.8 15.2 123.3 15.7L122.3 18.2C121.8 17.8 121.3 17.5 120.8 17.3C120.2 17.1 119.7 17 119.2 17C118.3 17 117.5 17.3 117 17.8C116.5 18.4 116.2 19.2 116.2 20.3C116.2 21.4 116.5 22.2 117 22.8C117.5 23.4 118.3 23.7 119.2 23.7C119.7 23.7 120.3 23.6 120.8 23.4C121.4 23.2 121.9 22.9 122.3 22.5L123.3 25C122.8 25.4 122.1 25.8 121.3 26.1C120.5 26.4 119.6 26.5 118.7 26.5C116.9 26.6 115.4 26 114.3 24.9ZM135.6 15.5C136.3 16.3 136.6 17.6 136.6 19.2L136.6 26.3L133 26.3L133 19.4C133 18.6 132.9 18 132.6 17.6C132.3 17.2 131.8 17 131.2 17C130.4 17 129.8 17.2 129.4 17.7C128.9 18.2 128.7 18.8 128.7 19.6L128.7 26.2L125 26.2L125 9.4L128.6 9.4L128.6 16.1C129 15.5 129.5 15 130.2 14.7C130.8 14.4 131.6 14.2 132.4 14.2C133.8 14.3 134.9 14.7 135.6 15.5Z" />
				<text id="J&amp;A " style="transform: matrix(0.485,0,0,0.511,50.515,25.512)" >
					<tspan x="0" y="0" class="txt4">J&amp;A</tspan>
				</text>
			</g>
		</g>
	</g>
</svg>