<svg width="144" height="41" xmlns="http://www.w3.org/2000/svg" baseProfile="tiny-ps" version="1.2">
 <title>logo-svg</title>
 <defs>
    <style type="text/css">
    @import url('https://fonts.googleapis.com/css2?family=Maven+Pro:wght@400;500;600;700;800;900');
 </style>
  <linearGradient y2="0.50016" x2="0.99956" y1="0.49987" x1="0.00085" id="grd1">
   <stop stop-color="#00deff" offset="0.006"/>
   <stop stop-color="#7141b1" offset="1"/>
  </linearGradient>
  <linearGradient y2="0.49878" x2="1.00314" y1="0.49849" x1="-0.0027" id="grd2">
   <stop stop-color="#82e7d7" offset="0.006"/>
   <stop stop-color="#72c9be" offset="0.365"/>
   <stop stop-color="#64b0b3" offset="0.524"/>
   <stop stop-color="#3c6a95" offset="1"/>
  </linearGradient>
  <linearGradient y2="0.49996" x2="0.99964" y1="0.49965" x1="0.00061" id="grd3">
   <stop stop-color="#00deff" offset="0.006"/>
   <stop stop-color="#7141b1" offset="1"/>
  </linearGradient>
  <linearGradient y2="0.50411" x2="1.72673" y1="0.50325" x1="-0.51939" id="grd4">
   <stop stop-color="#82e7d7" offset="0.006"/>
   <stop stop-color="#72c9be" offset="0.365"/>
   <stop stop-color="#64b0b3" offset="0.524"/>
   <stop stop-color="#3c6a95" offset="1"/>
  </linearGradient>
  <linearGradient y2="0.50099" x2="1.00007" y1="0.50057" x1="0.00025" id="grd5">
   <stop stop-color="#00deff" offset="0.006"/>
   <stop stop-color="#7141b1" offset="1"/>
  </linearGradient>
  <linearGradient y2="0.50099" x2="1.00468" y1="0.50047" x1="-0.30234" id="grd6">
   <stop stop-color="#82e7d7" offset="0.006"/>
   <stop stop-color="#72c9be" offset="0.365"/>
   <stop stop-color="#64b0b3" offset="0.524"/>
   <stop stop-color="#3c6a95" offset="1"/>
  </linearGradient>
 </defs>
 <g>
  <title>Layer 1</title>
  <g id="Layer">
   <g id="Layer">
    <g id="Layer">
     <path stroke-width="0.26" stroke="url(#grd2)" fill="url(#grd1)" d="m18.5,26.8l-10,-5.8l0,5.1l9.9,5.9l13.1,-7.2l0,2.9l-13.1,7.3l-12.5,-7.4l0,-21l-3.2,1.8c-1.5,0.9 -2.5,2.5 -2.5,4.3l-0.1,15.3c0,1.8 0.9,3.4 2.5,4.3l13.2,7.7c1.5,0.9 3.4,0.9 5,0l13.3,-7.6c1.5,-0.9 2.5,-2.5 2.5,-4.3l0.1,-12.1l-18.2,10.8z" class="shp0" id="Layer"/>
     <path stroke-width="0.26" stroke="url(#grd4)" fill="url(#grd3)" d="m25,3.1l-4,-2.3c-1.5,-0.9 -3.4,-0.9 -5,0l-7.5,4.3l0,7.8l16.5,-9.8z" class="shp1" id="Layer"/>
     <path stroke-width="0.26" stroke="url(#grd6)" fill="url(#grd5)" d="m8.5,18l10,5.8l18.2,-10.8l0,-0.2c0,-1.8 -0.9,-3.4 -2.4,-4.3l-15.9,9.5l-2.7,-1.5l16,-9.4l-4.2,-2.5l-19,11.2l0,2.2z" class="shp2" id="Layer"/>
    </g>
   </g>
  </g>
  <text  font-weight="bold" xml:space="preserve" text-anchor="start" font-family="'Maven Pro', sans-serif" font-size="23" id="svg_3" y="22.59824" x="39.08492" stroke-width="0.26" fill="url(#grd1)">BLUE</text>
  <text font-weight="bold" xml:space="preserve" text-anchor="start" font-family="'Maven Pro', sans-serif" font-size="23" id="svg_4" y="22.40685" x="100.60799" stroke-width="0" fill="#033535">IRIS</text>
  <text xml:space="preserve" text-anchor="start" font-family="'Maven Pro', sans-serif" font-size="8" id="svg_6" y="34.04635" x="40.46502" stroke-width="0.26" stroke="#000" fill="#000000">SOFTWARE TRADING L.L.C</text>
 </g>
</svg>